Coordinates
version=1
nRows=17
nColumns=36
inDegrees=yes

Units are S.I. units (second, meters, Newtons, ...)
If the header above contains a line with 'inDegrees', this indicates whether rotational values are in degrees (yes) or radians (no).

endheader
time	pelvis_tilt	pelvis_list	pelvis_rotation	pelvis_tx	pelvis_ty	pelvis_tz	hip_flexion_r	hip_adduction_r	hip_rotation_r	knee_angle_r	knee_angle_r_beta	ankle_angle_r	subtalar_angle_r	mtp_angle_r	hip_flexion_l	hip_adduction_l	hip_rotation_l	knee_angle_l	knee_angle_l_beta	ankle_angle_l	subtalar_angle_l	mtp_angle_l	lumbar_extension	lumbar_bending	lumbar_rotation	arm_flex_r	arm_add_r	arm_rot_r	elbow_flex_r	pro_sup_r	arm_flex_l	arm_add_l	arm_rot_l	elbow_flex_l	pro_sup_l
     30.00000000	      0.47820054	      1.16915876	      0.79852896	      0.48172509	      1.06552515	      0.83709653	     23.15490857	     -2.59941771	      1.03017590	     45.67893213	      0.79724776	      2.32668488	    -12.63842610	     -7.49999987	      5.12455096	      2.33230563	      1.13904575	     18.43049458	      0.32167281	     12.38840301	     -4.28352090	     -7.49999987	    -17.86190961	      2.74462588	      0.26088022	      4.82333424	    -10.50347771	     -1.44314893	     20.53859181	     73.70249968	     13.91441009	    -10.38531681	     -5.70568161	     38.64769586	     75.02740970
     30.01666670	      0.38446549	      1.06235608	      0.67573171	      0.47889776	      1.06471887	      0.83642759	     23.85982484	     -2.62685673	      0.69712662	     40.47682327	      0.70645384	      2.33263095	    -11.65694515	     -7.49999987	      4.53855487	      2.26615755	      0.77421463	     18.01348648	      0.31439465	     11.90747799	     -4.37733673	     -7.49999987	    -18.37464450	      3.04799868	      0.25567046	      5.43874923	    -10.66900986	     -1.64391953	     20.21557111	     73.77061043	     15.52139910	    -10.37954955	     -5.37659636	     39.39684178	     75.15240557
     30.03333330	      0.57051506	      1.14167418	      0.54618301	      0.47676761	      1.06211184	      0.83766239	     24.16167632	     -2.91866879	      0.33334156	     35.19886585	      0.61433610	      2.28236109	    -10.12001997	     -7.49999987	      3.56173642	      2.38824951	      0.56171030	     17.53449315	      0.30603464	     11.88347838	     -4.50728991	     -7.49999987	    -19.16950815	      3.11367318	      0.32173153	      6.02865966	    -10.75134257	     -2.00073282	     19.63164588	     74.08736800	     16.87262591	    -10.44948656	     -4.62737281	     40.31695446	     75.60849791
     30.05000000	      0.39630803	      1.36867133	      0.28479423	      0.47262598	      1.05793197	      0.84066633	     24.83762005	     -3.26702264	      0.12960441	     29.97862064	      0.52322564	      2.09324546	     -8.28001987	     -7.49999987	      2.65559247	      2.64731092	      0.53314502	     16.71743316	      0.29177425	     12.46076330	     -4.54517507	     -7.49999987	    -19.35143957	      2.86817100	      0.35062313	      6.42701398	    -10.70097032	     -2.27789230	     19.17600072	     74.39600507	     17.90167149	    -10.62404638	     -4.11762869	     41.07710553	     76.02873346
     30.06666670	      0.40878467	      1.63240418	      0.06182029	      0.46692707	      1.05415805	      0.84317431	     25.29796210	     -3.67011619	     -0.35923741	     24.99768859	      0.43629197	      2.32907426	     -5.73684528	     -7.49999987	      1.26114792	      2.93177329	      0.92374324	     15.65775599	      0.27327940	     13.78756822	     -4.20267716	     -7.49999987	    -19.75403697	      2.48861126	      0.33150812	      6.76087601	    -10.41127962	     -3.67269524	     19.13323726	     74.78426847	     18.68166616	    -11.23305829	     -2.64368579	     42.43473170	     76.36938200
     30.08333330	      0.04014908	      1.83551457	     -0.10630357	      0.46258387	      1.05110744	      0.84387738	     26.17549925	     -3.99260613	     -0.94029148	     20.52607089	      0.35824752	      2.72374154	     -3.30477013	     -7.49999987	      0.14869439	      3.14684256	      1.54070017	     14.62894526	      0.25532326	     15.27713182	     -3.75995861	     -7.49999987	    -19.47388587	      2.20867199	      0.10681619	      7.22008540	    -10.16991018	     -4.46989479	     18.66184067	     75.50210074	     19.21588644	    -11.70727532	     -1.91582465	     43.16879567	     76.58424688
     30.10000000	     -0.38410880	      1.99916718	     -0.22843546	      0.46063887	      1.04865757	      0.84387613	     27.13328759	     -4.23741404	     -1.48864536	     16.72537796	      0.29191291	      3.37578699	     -0.97332206	     -7.49999987	     -0.94350318	      3.32725984	      2.13924683	     13.68885250	      0.23891555	     16.59597846	     -3.12773517	     -7.49999987	    -18.97059656	      2.07785765	     -0.19499425	      7.69320832	     -9.98808765	     -5.15450919	     18.20713458	     76.64643506	     19.47180985	    -12.03493803	     -1.64628177	     43.71065477	     77.06757851
     30.11666670	     -0.84840563	      2.00853593	     -0.39914362	      0.45951921	      1.04592039	      0.84497402	     28.17900828	     -4.21202768	     -1.72760542	     13.61787120	      0.23767669	      4.14111289	      0.87001615	     -7.49999987	     -1.94524350	      3.36470960	      2.54341002	     12.96964032	      0.22636293	     17.46421388	     -2.20946710	     -7.49999987	    -18.28629794	      2.17361205	     -0.43314048	      8.22642536	     -9.85751196	     -5.54493490	     17.45271581	     77.47892624	     19.56622184	    -12.29609986	     -1.39521243	     43.94275834	     77.26072960
     30.13333330	     -1.19058885	      1.84996129	     -0.78495077	      0.45834636	      1.04133832	      0.84757488	     29.12446341	     -3.86601609	     -1.76047262	     11.11903723	      0.19406381	      4.86090550	      2.32185242	     -7.49999987	     -3.04966531	      3.28419817	      2.76927366	     12.47617016	      0.21775025	     17.76592451	     -1.33085952	     -7.49999987	    -17.75077044	      2.45179359	     -0.42217239	      8.51593069	     -9.82441442	     -6.24347203	     17.37319365	     79.86764632	     19.58248030	    -12.35285680	     -1.50326706	     44.10064859	     78.08337688
     30.15000000	     -1.81961907	      1.64305121	     -1.34539837	      0.45759760	      1.03581591	      0.85109847	     30.47663863	     -3.33953389	     -1.71205561	      9.50206215	      0.16584227	      5.28705647	      3.29539605	     -7.49999987	     -3.56326470	      3.14539514	      2.59824088	     12.69981407	      0.22165357	     18.03637308	     -0.15321804	     -7.49999987	    -16.86313390	      2.73755141	     -0.13894623	      8.82456327	     -9.81630347	     -6.68312547	     16.94054428	     80.49364459	     19.60887654	    -12.35970990	     -1.18975063	     43.98520214	     78.42944566
     30.16666670	     -2.16702961	      1.31771899	     -2.01339804	      0.45742361	      1.03158046	      0.85424085	     31.51089995	     -2.61180488	     -1.68811966	      8.76991902	      0.15306396	      5.29158049	      3.72322154	     -7.49999987	     -4.08901862	      2.87590928	      2.36493061	     13.50808417	      0.23576054	     18.02551614	      0.29215643	     -7.49999987	    -16.49246218	      3.10620983	      0.22184189	      9.09186670	     -9.89106331	     -6.68841493	     17.09706799	     80.54945873	     19.49327895	    -12.32481632	     -1.17008586	     44.19454660	     78.40833405
     30.18333330	     -2.64190534	      0.82448032	     -2.63220141	      0.45768110	      1.02862219	      0.85575823	     32.67354313	     -1.75596555	     -2.18365153	      9.15961785	      0.15986549	      4.80770162	      4.01122509	     -7.49999987	     -4.20128670	      2.25860871	      1.28841756	     14.82270761	      0.25870505	     18.42156420	      1.81688530	     -7.49999987	    -16.07510594	      3.64560060	      0.92001620	      9.17844129	    -10.12340168	     -6.63245796	     17.19598928	     80.75717164	     19.16031614	    -11.98137552	     -1.25248833	     44.71438227	     78.31104750
     30.20000000	     -2.65332648	      0.56507216	     -3.03036554	      0.45865183	      1.02789651	      0.85627633	     33.24073214	     -1.26618862	     -2.72365756	     10.46968374	      0.18273045	      3.69476161	      3.75944905	     -7.49999987	     -4.77376654	      1.88894096	      0.65175988	     16.03229035	      0.27981625	     17.78594335	      2.05280670	     -7.49999987	    -16.22245108	      3.94316054	      1.20732798	      9.40741538	    -10.22718546	     -6.57937694	     17.37289976	     80.85906512	     18.89329442	    -11.73621069	     -1.33743228	     44.75824052	     78.27410625
     30.21666670	     -2.55978606	      0.10898658	     -3.39301314	      0.46365780	      1.02685548	      0.85845857	     33.25985703	     -0.56671000	     -2.81068650	     12.17479483	      0.21249026	      1.38972794	      1.79497050	     -7.49999987	     -5.59753397	      1.20765581	     -0.45075701	     17.25753032	      0.30120072	     16.82684238	      2.72838674	     -7.49999987	    -16.36078817	      4.40701628	      1.59988993	      9.18493160	    -10.47831269	     -6.00026204	     18.00724823	     80.86377645	     18.14446607	    -10.99592332	     -2.53606984	     45.03393853	     77.02137951
     30.23333330	     -2.25928074	     -0.40029831	     -3.66287557	      0.47207546	      1.02598885	      0.86333315	     32.69290398	      0.10665201	     -2.99306437	     14.20796675	      0.24797580	     -1.28240600	     -0.42284751	     -7.49999987	     -6.70150095	      0.46127603	     -1.24787959	     18.77440830	      0.32767524	     14.66877564	      2.43351833	     -7.49999987	    -16.50107083	      4.92047872	      1.71949981	      8.94576170	    -10.66795519	     -4.96569398	     18.15811163	     81.86621138	     17.13993486	    -10.27033608	     -3.76688199	     44.71565164	     76.51736470
     30.25000000	     -1.59041049	     -1.19690430	     -3.98160988	      0.48036842	      1.02428687	      0.86891257	     31.48489118	      1.08195916	     -3.04500113	     16.19618980	      0.28267684	     -3.90772306	     -2.70730641	     -7.49999987	     -7.99963351	     -0.69599071	     -2.37031098	     21.02232595	      0.36690880	     11.57851192	      2.05531362	     -7.49999987	    -17.04033643	      5.65890470	      2.14410946	      8.38520137	    -10.82288778	     -4.84365903	     18.71075017	     81.83266254	     16.22165388	     -9.54746997	     -4.20125246	     43.94158553	     76.10361982
     30.26666670	     -0.95016196	     -1.97435935	     -4.34243946	      0.48556738	      1.02292937	      0.87254961	     30.32594311	      2.09082285	     -2.82642922	     18.12931323	      0.31641621	     -5.69846607	     -4.81317384	     -7.49999987	     -8.92603091	     -1.95064840	     -3.62816366	     23.83254568	      0.41595639	      7.23122435	      1.42139485	     -7.49999987	    -17.62029341	      6.30319064	      2.65281234	      7.84311165	    -10.90773152	     -4.95994271	     19.26365991	     81.81822038	     15.52002584	     -8.88518588	     -4.32322545	     42.53691974	     75.90828273
